<?xml version="1.0" standalone="no"?>
<!DOCTYPE svg PUBLIC "-//W3C//DTD SVG 20010904//EN"
 "http://www.w3.org/TR/2001/REC-SVG-20010904/DTD/svg10.dtd">
<svg version="1.0" xmlns="http://www.w3.org/2000/svg"
 width="750.000000pt" height="333.000000pt" viewBox="0 0 750.000000 333.000000"
 preserveAspectRatio="xMidYMid meet">
<metadata>
Created by potrace 1.16, written by Peter Selinger 2001-2019
</metadata>
<g transform="translate(0.000000,333.000000) scale(0.100000,-0.100000)"
fill="#000000" stroke="none">
<path d="M5591 3280 c-41 -11 -107 -36 -148 -56 -70 -35 -75 -36 -120 -24 -71
18 -246 11 -392 -16 -29 -6 -33 -4 -28 10 8 21 3 20 -61 -4 -35 -14 -77 -20
-130 -20 -42 -1 -111 -5 -152 -11 -41 -5 -82 -10 -90 -11 -8 0 -21 -5 -27 -11
-7 -5 -13 -7 -13 -3 0 10 -141 -64 -185 -97 -42 -32 -72 -63 -108 -112 -12
-16 8 -1 45 35 129 127 255 181 439 188 64 2 138 0 165 -6 27 -5 69 -7 94 -3
86 12 343 -19 368 -44 3 -3 -1 -12 -9 -22 -8 -9 18 9 56 40 268 217 646 228
915 29 19 -14 29 -18 21 -9 -26 32 -156 106 -236 133 -110 38 -293 44 -404 14z"/>
<path d="M6976 3012 c-113 -233 -239 -378 -358 -414 -21 -6 -38 -15 -38 -20 0
-4 -12 -8 -26 -8 -14 0 -23 4 -19 10 3 6 -1 10 -9 10 -12 0 -16 -10 -16 -38 0
-42 -14 -34 185 -108 102 -38 149 -46 65 -11 -79 33 -161 75 -190 97 -24 18
-24 19 -5 25 79 26 190 100 237 157 69 85 218 341 206 354 -2 2 -17 -22 -32
-54z"/>
<path d="M5513 3054 c-8 -4 -9 -14 -3 -34 4 -16 6 -31 3 -34 -3 -3 0 -19 6
-36 10 -31 10 -31 -19 -25 -31 7 -43 -11 -15 -21 9 -4 15 -11 14 -18 -2 -17
12 -56 21 -56 4 0 10 -13 12 -30 3 -16 3 -30 2 -30 -2 0 -14 4 -28 10 -21 7
-26 6 -26 -5 0 -8 7 -15 15 -15 11 0 14 -9 12 -32 -1 -18 -8 -33 -14 -33 -6 0
-15 -3 -19 -7 -12 -13 -24 -9 -24 7 0 8 -5 15 -11 15 -5 0 -7 5 -4 10 3 6 -3
10 -14 10 -10 0 -21 6 -24 13 -9 25 -47 -24 -47 -61 0 -29 3 -34 20 -29 15 4
20 0 20 -14 0 -15 -7 -19 -36 -19 -27 0 -35 -4 -31 -14 8 -20 -4 -28 -20 -15
-11 9 -13 2 -13 -38 0 -47 2 -50 24 -48 40 5 51 -12 13 -19 -37 -7 -47 -23
-47 -84 0 -18 -5 -43 -11 -54 -7 -13 -7 -23 -2 -27 6 -3 13 -13 16 -21 5 -11
6 -9 6 5 -4 75 1 90 36 106 l35 16 0 -33 c0 -27 4 -34 20 -34 13 0 25 10 32
28 l11 27 6 -35 c4 -23 12 -36 24 -38 16 -3 17 2 11 46 -4 29 -2 57 4 69 8 15
8 23 -1 33 -9 10 -9 12 3 8 9 -3 15 -18 16 -39 1 -49 12 -67 45 -74 20 -5 29
-13 29 -26 0 -10 5 -19 11 -19 5 0 8 4 5 9 -9 15 4 40 19 35 7 -3 15 2 18 11
9 22 -3 75 -17 75 -7 0 -18 16 -25 36 -11 30 -11 38 3 53 9 10 16 25 16 34 0
9 6 17 13 17 7 0 13 8 13 18 0 10 -6 19 -13 19 -7 0 -10 -4 -7 -8 7 -11 -16
-23 -26 -13 -9 9 -11 41 -26 312 -3 67 -9 122 -13 121 -3 0 -11 -3 -18 -5z"/>
<path d="M5883 2805 c-17 -19 -16 -47 2 -71 17 -22 20 -54 5 -54 -12 0 -3 -71
10 -80 11 -8 19 -50 9 -50 -5 0 -9 -18 -9 -40 0 -22 4 -40 9 -40 15 0 24 -41
12 -53 -6 -6 -11 -23 -11 -39 0 -15 -8 -35 -19 -45 -24 -24 -35 -71 -20 -89 8
-10 8 -14 0 -14 -6 0 -11 -9 -11 -21 0 -12 -4 -17 -11 -13 -6 3 -8 17 -5 29 9
37 -2 52 -50 65 -41 12 -44 15 -30 28 18 18 56 24 56 8 0 -6 4 -6 11 1 8 8 8
17 0 31 -6 11 -11 32 -11 46 0 37 -42 36 -60 -1 l-14 -28 -6 35 -7 35 -4 -35
c-5 -44 -21 -42 -32 4 -7 27 -14 36 -29 36 -17 0 -18 -2 -8 -15 10 -12 10 -21
2 -40 -10 -22 -9 -25 7 -25 10 0 21 -6 24 -14 7 -16 -23 -46 -45 -46 -15 0
-28 -35 -21 -57 2 -6 13 -8 25 -5 17 4 19 1 14 -15 -5 -14 0 -23 16 -31 19 -9
13 -11 -37 -9 l-60 2 -5 70 c-3 46 -8 64 -13 51 -5 -14 -15 -17 -37 -14 -30 5
-30 5 -27 -41 3 -38 7 -46 27 -51 19 -4 24 -13 27 -49 l4 -44 -45 5 c-40 5
-46 3 -46 -13 0 -13 17 -27 52 -44 28 -14 54 -25 56 -25 3 0 2 29 -2 64 -6 58
-5 64 14 69 17 4 20 0 21 -31 0 -21 4 -55 9 -77 6 -30 7 -20 3 35 -5 72 -4 76
16 76 18 0 21 -7 23 -46 l1 -45 6 45 c4 31 11 45 21 45 11 0 18 -21 27 -85
l12 -85 -5 86 c-4 79 -3 87 13 85 11 0 20 -12 24 -31 l6 -30 2 33 c2 56 21 25
22 -36 1 -31 5 -68 9 -82 4 -15 6 12 4 65 -2 62 0 79 5 55 l8 -35 2 33 c2 48
21 29 22 -21 0 -23 4 -60 9 -82 6 -29 7 -16 4 50 -3 71 -1 81 6 50 5 -22 9
-59 9 -82 1 -24 5 -43 11 -43 5 0 8 6 6 13 -11 34 -16 148 -6 142 5 -3 10 -23
11 -43 0 -20 4 -55 9 -77 6 -30 7 -19 4 45 -2 58 -1 75 5 55 5 -16 9 -51 10
-77 0 -27 5 -48 11 -48 5 0 8 6 6 13 -11 33 -15 138 -6 132 6 -3 11 -23 11
-43 1 -20 5 -50 9 -67 6 -20 7 -4 4 45 -2 51 -1 67 5 50 5 -14 9 -44 10 -67 1
-24 5 -43 11 -43 5 0 8 6 5 13 -11 36 -15 118 -5 112 5 -3 10 -21 11 -38 1
-18 5 -43 9 -57 6 -16 7 -1 3 40 -7 77 3 76 16 -1 l10 -54 -4 58 c-2 31 1 57
6 57 5 0 9 -20 9 -45 0 -25 4 -45 10 -45 6 0 8 20 5 48 l-5 47 15 -40 14 -40
-5 38 c-3 22 -1 37 6 37 5 0 11 -15 11 -32 l2 -33 7 35 c5 22 8 27 9 13 0 -12
6 -25 12 -29 9 -5 10 1 5 20 -3 14 -2 26 3 26 5 0 12 -8 14 -17 3 -12 5 -10 6
7 1 18 4 21 10 12 6 -10 18 -2 47 31 49 55 91 137 102 197 8 45 -2 115 -16
106 -4 -2 -8 7 -9 21 0 14 -5 28 -10 32 -8 6 -15 27 -16 49 0 6 -4 12 -9 12
-4 0 -8 7 -8 15 0 29 -40 17 -51 -15 -6 -16 -16 -30 -22 -30 -6 0 -8 -3 -4 -6
3 -4 0 -13 -8 -20 -8 -9 -12 -27 -9 -47 5 -34 -13 -73 -23 -49 -2 6 -11 12
-18 12 -7 0 -16 6 -18 13 -3 7 -6 5 -6 -5 -1 -19 -5 -20 -63 -22 -24 -1 -38 4
-38 12 0 6 -8 12 -19 12 -22 0 -25 13 -42 185 -6 66 -14 123 -18 127 -3 3 -12
0 -18 -7z"/>
<path d="M4699 2573 c0 -10 -2 -29 -3 -43 -4 -32 11 -73 23 -65 5 3 12 1 16
-5 4 -6 -5 -10 -19 -10 -19 0 -26 -5 -26 -20 0 -11 -4 -20 -10 -20 -5 0 -9 -3
-9 -7 4 -22 -3 -25 -15 -7 -17 23 -27 16 -19 -14 4 -18 12 -22 49 -22 45 0 50
4 35 29 -5 8 -14 10 -22 6 -9 -6 -11 -3 -6 9 4 10 7 22 7 27 0 5 12 9 26 9 14
0 34 5 45 10 15 8 19 7 19 -4 0 -15 -27 -29 -41 -20 -5 3 -9 -2 -9 -11 0 -9 5
-13 10 -10 6 3 10 -1 10 -9 0 -12 10 -16 35 -16 38 0 44 12 20 37 -23 22 -13
37 27 43 32 5 35 7 27 28 -6 17 -16 22 -43 22 -19 0 -37 4 -40 8 -3 5 34 8 82
7 101 -2 112 1 112 26 0 10 5 19 12 19 9 0 9 3 0 12 -10 10 -14 10 -21 0 -6
-10 -32 -10 -122 -2 -149 13 -149 13 -150 -7z"/>
<path d="M4960 2422 c0 -9 -10 -13 -27 -11 -36 3 -93 -10 -93 -22 0 -5 19 -9
43 -9 23 0 49 -5 57 -11 10 -7 -15 -8 -82 -4 l-97 6 -7 -26 c-3 -14 -5 -27 -3
-29 2 -2 52 -6 111 -8 100 -3 107 -2 112 17 9 31 7 79 -4 95 -7 11 -10 12 -10
2z"/>
<path d="M3652 2327 c-95 -49 -180 -115 -238 -186 -56 -68 -129 -198 -149
-266 l-12 -40 -204 -6 c-211 -6 -337 -26 -454 -70 -62 -23 -71 -24 -54 -2 13
16 12 16 -14 0 -45 -29 -55 -14 -11 18 76 56 68 58 -12 4 l-42 -28 -215 -5
c-219 -6 -596 -34 -807 -61 -129 -17 -331 -60 -339 -73 -9 -13 -68 -31 -76
-24 -3 4 -9 1 -13 -5 -4 -7 -23 -19 -42 -28 l-35 -16 45 7 c74 11 300 20 300
12 0 -5 10 -8 21 -8 17 0 19 -3 10 -14 -7 -8 48 10 121 40 73 29 180 65 238
80 96 25 115 26 235 21 117 -6 402 -41 413 -52 2 -2 -24 -23 -59 -47 -79 -55
-241 -206 -297 -278 -69 -89 -175 -316 -247 -528 -70 -207 -95 -263 -158 -357
-53 -79 -249 -279 -293 -300 -48 -23 -318 -32 -484 -16 -226 22 -563 90 -719
145 -24 9 -46 14 -49 12 -18 -19 25 -37 178 -76 151 -38 170 -45 154 -57 -15
-11 -15 -13 -2 -13 9 0 18 7 22 15 4 11 14 14 33 10 46 -9 264 -44 316 -50 33
-4 45 -10 40 -18 -5 -9 -3 -9 8 -1 16 12 422 7 414 -5 -2 -4 -25 -18 -51 -32
l-48 -24 104 -3 103 -3 42 41 c31 30 52 42 81 45 21 2 31 2 22 -1 -10 -3 -18
-10 -18 -16 0 -6 10 -4 23 4 12 8 34 13 49 11 15 -2 40 4 55 14 57 36 3 -15
-59 -57 l-60 -40 74 0 c73 0 76 1 149 51 41 28 84 60 95 71 12 11 28 20 36 22
8 1 27 9 41 19 15 9 30 17 35 17 5 0 17 9 28 21 10 11 61 44 114 74 52 29 133
82 180 116 47 35 87 64 90 64 9 1 169 173 378 406 111 124 218 234 237 245 18
10 32 21 30 24 -10 16 129 115 278 198 l107 61 30 -59 c43 -85 55 -84 15 2
-54 114 -69 186 -69 323 1 136 17 211 69 320 69 145 192 274 334 349 36 19 62
36 56 36 -5 0 -38 -15 -73 -33z m-407 -537 c25 -40 -332 -78 -570 -60 l-70 5
50 18 c28 9 91 23 140 31 112 16 441 21 450 6z m9 -295 c4 -20 9 -42 12 -49 3
-8 -8 -17 -28 -23 -31 -10 -31 -11 -7 -12 47 -2 30 -30 -28 -47 -29 -8 -53
-19 -53 -23 0 -5 -21 -16 -47 -26 -26 -10 -55 -26 -65 -35 -9 -8 -34 -22 -54
-29 -68 -25 -283 -153 -364 -218 -114 -92 -248 -226 -385 -388 -201 -236 -278
-300 -476 -394 -132 -62 -339 -128 -339 -107 0 3 20 32 44 63 127 168 192 305
313 658 70 205 112 284 188 360 53 54 182 135 213 135 6 0 -7 -39 -29 -86 -59
-128 -92 -232 -83 -263 4 -14 7 -29 6 -33 -1 -5 3 -8 8 -8 6 0 10 -12 11 -27
0 -16 22 58 48 162 26 105 57 211 68 236 21 46 21 46 119 77 148 47 360 81
539 88 55 2 125 7 155 12 30 4 94 9 141 11 l87 2 6 -36z"/>
<path d="M3922 2236 c-95 -18 -201 -70 -279 -134 -81 -68 -87 -79 -58 -116
l23 -29 26 29 25 29 0 -40 c-1 -32 -2 -35 -8 -15 l-7 24 -17 -24 -18 -25 -18
22 -19 22 -7 -22 c-7 -19 -9 -18 -12 12 l-5 35 -29 -47 c-60 -96 -95 -247 -84
-359 l7 -67 36 24 c20 14 40 25 43 25 4 0 9 -21 11 -46 l3 -46 -37 4 c-47 4
-48 -6 -9 -87 78 -162 226 -288 386 -328 88 -23 166 -30 226 -22 47 7 60 14
124 75 89 85 140 117 235 150 l75 27 37 70 c49 92 68 168 68 273 0 158 -51
288 -159 403 -144 153 -355 221 -559 183z"/>
<path d="M6075 1880 c-6 -9 -10 -92 -10 -195 0 -99 -3 -185 -8 -192 -6 -9 27
-83 38 -83 4 0 46 22 64 34 10 6 3 14 -25 30 l-39 22 -5 199 c-3 138 -8 195
-15 185z"/>
<path d="M6505 1788 c-40 -14 -79 -49 -64 -59 8 -4 2 -13 -15 -24 -31 -21 -33
-31 -6 -45 14 -8 26 -8 41 0 11 6 25 9 32 7 7 -2 0 -10 -15 -17 -15 -7 -25
-16 -23 -21 3 -4 -4 -14 -16 -23 -19 -13 -20 -18 -9 -31 11 -13 10 -18 -4 -33
-9 -10 -16 -29 -16 -41 0 -12 -4 -19 -10 -16 -6 4 -8 11 -5 16 4 5 -2 6 -11 2
-11 -4 -13 -8 -6 -11 19 -6 14 -18 -14 -31 -32 -14 -46 -5 -21 14 15 11 16 13
2 19 -24 9 -44 -4 -47 -31 -3 -26 -10 -30 -181 -95 -5 -2 -5 -11 -2 -19 5 -14
19 -11 97 23 56 24 100 37 113 34 15 -4 28 1 40 14 13 15 31 20 67 20 26 0 48
3 48 8 0 4 -9 36 -20 72 -11 36 -20 68 -20 72 0 3 27 15 61 27 44 15 61 17 64
8 2 -7 11 -38 19 -70 l15 -59 -34 -14 c-19 -8 -38 -14 -44 -14 -5 0 -11 -9
-14 -20 -3 -11 -12 -20 -21 -20 -9 0 -16 -4 -16 -10 0 -5 6 -10 14 -10 7 0 27
-7 42 -15 16 -8 24 -15 18 -15 -7 0 -11 -8 -10 -17 1 -13 -6 -18 -22 -17 -16
0 -21 -4 -17 -13 3 -8 5 -17 5 -19 0 -2 7 -4 15 -4 22 0 18 -23 -8 -41 -24
-18 -131 -23 -157 -8 -13 7 -13 8 0 9 13 0 13 1 0 10 -23 15 -26 13 -49 -25
-30 -51 -37 -85 -18 -85 8 0 17 5 19 11 2 7 20 3 51 -11 73 -34 176 -18 276
42 66 40 74 56 32 64 -44 9 -39 18 19 33 56 14 110 58 110 90 0 13 -12 26 -31
37 -31 16 -31 16 -12 35 18 19 18 21 -13 117 -25 80 -35 98 -52 100 -26 4 -27
11 -7 38 19 25 19 30 -5 54 -16 16 -33 20 -77 19 -32 0 -71 -5 -88 -11z m215
-194 c12 -36 20 -67 17 -70 -2 -3 -26 -7 -53 -10 l-49 -6 -18 67 c-9 38 -15
70 -12 73 7 7 78 19 87 15 3 -2 16 -33 28 -69z"/>
<path d="M4462 1094 c-84 -42 -156 -115 -198 -200 -21 -41 -35 -77 -32 -80 3
-3 37 -8 76 -11 69 -6 71 -5 83 20 18 41 39 42 32 3 -4 -28 -2 -34 18 -39 27
-7 39 6 39 44 0 14 11 47 24 72 13 26 19 50 14 53 -5 4 -5 10 1 17 13 17 19
147 5 147 -5 0 -34 -12 -62 -26z"/>
<path d="M6076 885 c-94 -191 -290 -316 -526 -335 l-85 -7 97 -2 c226 -3 415
115 520 326 22 44 39 85 37 90 -2 4 -22 -28 -43 -72z"/>
<path d="M5374 929 c-2 -4 -1 -27 2 -52 8 -55 12 -57 154 -57 148 0 150 1 150
64 l0 51 -151 0 c-83 0 -153 -3 -155 -6z"/>
<path d="M4604 815 c-7 -28 -11 -51 -10 -52 1 -1 22 -5 47 -7 45 -5 422 -61
472 -70 25 -5 27 -3 27 28 0 41 -9 51 -26 28 -12 -18 -23 -17 -253 21 l-240
40 -3 31 c-3 27 -4 24 -14 -19z"/>
<path d="M4721 598 c-5 -13 -14 -65 -21 -116 -10 -75 -11 -95 -1 -102 21 -13
221 -34 231 -24 4 5 15 58 23 117 16 127 22 119 -100 137 -106 15 -122 13
-132 -12z"/>
<path d="M11 88 l-1 -88 139 0 c152 0 160 3 167 62 4 31 4 31 -17 12 -22 -19
-22 -19 -14 5 5 17 4 22 -6 19 -8 -3 -14 -11 -14 -19 0 -8 -8 -13 -18 -13 -9
1 -15 -2 -12 -6 3 -5 0 -12 -7 -16 -7 -4 -10 -4 -6 1 4 4 3 15 -4 22 -10 12
-15 11 -30 -9 l-18 -23 -6 24 c-7 23 -8 23 -21 6 -7 -11 -13 -14 -13 -7 0 6
-6 9 -14 6 -8 -3 -25 5 -38 18 -13 13 -30 23 -38 23 -9 0 -17 13 -21 35 -4 23
-7 5 -8 -52z"/>
</g>
</svg>
